<svg xmlns="http://www.w3.org/2000/svg" viewBox="0 0 43.53 40"><path d="M43.53,40H0V0H43.53ZM4.1,26.38l-.28.06c0,.29,0,.59,0,.89,0,2.69,0,5.39,0,8.08,0,1.31.33,1.63,1.66,1.63H38.25c1.37,0,1.7-.33,1.71-1.69,0-3.66,0-7.31,0-11a2.59,2.59,0,0,0-.29-1.13Q37.39,19,35.07,14.76a4.31,4.31,0,0,0-.79-.81,5.11,5.11,0,0,0-.65.84C32.15,18,30.7,21.2,29.21,24.4a7.52,7.52,0,0,1-.84,1.13,6.38,6.38,0,0,1-.95-1.15c-1.56-3.13-3.08-6.27-4.63-9.41-.17-.35-.4-.66-.72-1.17a14,14,0,0,0-.83,1.26q-5.31,10.21-10.6,20.42a4.3,4.3,0,0,1-.78.82,4.42,4.42,0,0,1-.8-.82c-.77-1.38-1.47-2.79-2.23-4.18C5.94,29.65,5,28,4.1,26.38m35.7-13.8L40,12.5V4.88C40,3.39,39.58,3,38.08,3H5.53c-1.37,0-1.76.4-1.77,1.77,0,3.25,0,6.51,0,9.76a2.84,2.84,0,0,0,.34,1.31q2.44,4.42,5,8.82a5.09,5.09,0,0,0,.85.89,7.8,7.8,0,0,0,.7-.93C14.1,18,17.54,11.29,21,4.62a8.5,8.5,0,0,1,1.06-1.3,10.89,10.89,0,0,1,1,1.37c1.52,3,3,6.1,4.5,9.15.18.37.43.71.76,1.25.3-.53.52-.86.68-1.2,1.53-3.32,3-6.64,4.59-9.94a3.46,3.46,0,0,1,.7-.79,3.76,3.76,0,0,1,.75.74c.69,1.21,1.34,2.44,2,3.66l2.73,5" style="fill:#fff"/><path d="M4.1,26.38C5,28,5.94,29.65,6.83,31.3c.76,1.39,1.46,2.8,2.23,4.18a4.42,4.42,0,0,0,.8.82,4.3,4.3,0,0,0,.78-.82Q16,25.28,21.24,15.06a14,14,0,0,1,.83-1.26c.32.51.55.82.72,1.17,1.55,3.14,3.07,6.28,4.63,9.41a6.83,6.83,0,0,0,.95,1.15,7.6,7.6,0,0,0,.84-1.14c1.49-3.19,2.94-6.4,4.42-9.6a5.11,5.11,0,0,1,.65-.84,4.31,4.31,0,0,1,.79.81q2.32,4.23,4.59,8.48A2.67,2.67,0,0,1,40,24.38c0,3.66,0,7.31,0,11,0,1.36-.33,1.69-1.7,1.69H5.42c-1.33,0-1.65-.32-1.66-1.63q0-4,0-8.09c0-.29,0-.59,0-.89l.28-.05"/><path d="M39.8,12.58l-2.73-5c-.67-1.22-1.32-2.45-2-3.66a3.76,3.76,0,0,0-.75-.74,3.46,3.46,0,0,0-.7.79c-1.55,3.3-3.06,6.62-4.59,9.94-.16.34-.38.67-.68,1.2-.33-.54-.58-.88-.76-1.25-1.51-3.05-3-6.11-4.5-9.15a10.89,10.89,0,0,0-1-1.37A8.5,8.5,0,0,0,21,4.62c-3.48,6.67-6.92,13.35-10.39,20a7.8,7.8,0,0,1-.7.93,5.09,5.09,0,0,1-.85-.89q-2.52-4.39-5-8.82a2.84,2.84,0,0,1-.34-1.31c0-3.25,0-6.51,0-9.76C3.77,3.42,4.16,3,5.53,3H38.08C39.58,3,40,3.39,40,4.88V12.5l-.16.08"/></svg>