<svg xmlns="http://www.w3.org/2000/svg" viewBox="0 0 54 54"><path d="M54,54H0V0H54ZM19.09,23.92c-.28.55-.65.93-.59,1.21.9,3.82,1.06,8.07,5.47,10,.61.27,1.13.76,1.76,1,4.22,1.55,7.85,4.13,11.55,6.6,2.7,1.81,2.76,1.87,5-.51,1.43-1.55,2.64-3.31,4-5-2.91-1.77-5.46-3.36-8-4.89a2.43,2.43,0,0,1-1.26-2.19c-.13-2.47-.3-4.94-.57-7.4-.13-1.16.08-2.66-1.75-2.89-.18,0-.41-.35-.48-.59-.5-1.57-1.67-1.6-2.94-1.24a2.57,2.57,0,0,1-2.52-.36,1.74,1.74,0,0,0-2.54.25,2.44,2.44,0,0,1-2.92.64,1.52,1.52,0,0,0-2.16,1c-.31.73-.69,1.43-1.11,2.28-.46-.39-.83-.7-1.18-1-2.54-2.29-5-4.62-7.64-6.83A21.54,21.54,0,0,0,8,12l-.4.4A22.37,22.37,0,0,0,10,15.66c3,2.87,6.19,5.61,9.13,8.26M11.86,11.76c.5,1.06,1,.66,1.54.15A19.7,19.7,0,0,1,31.33,7.16a20.24,20.24,0,0,1,14.9,26.4c-.24.73-.54,1.41.61,1.56,3.38-7,2.23-18.65-7.07-25.48C31.14,3.3,18.71,4.25,11.86,11.76M37.79,45.53c-.49-.79-1.06-.69-1.8-.32a19.64,19.64,0,0,1-14.56,1.34,20.29,20.29,0,0,1-12.89-28c.32-.71.64-1.33-.39-1.69-4,6.31-4.2,17.71,3.71,25.51s19.37,7.55,25.93,3.19" style="fill:#fff"/><path d="M19.09,23.92C16.15,21.27,13,18.53,10,15.66a22.37,22.37,0,0,1-2.4-3.25L8,12a21.54,21.54,0,0,1,3.15,1.89c2.6,2.21,5.1,4.54,7.64,6.83.35.32.72.63,1.18,1,.42-.85.8-1.55,1.11-2.29a1.52,1.52,0,0,1,2.16-.95,2.43,2.43,0,0,0,2.92-.65,1.74,1.74,0,0,1,2.54-.24,2.57,2.57,0,0,0,2.52.36c1.27-.36,2.44-.33,2.94,1.24.07.24.3.57.48.59,1.83.23,1.62,1.73,1.75,2.89.27,2.46.44,4.93.57,7.4a2.43,2.43,0,0,0,1.26,2.19c2.58,1.53,5.14,3.12,8,4.89-1.34,1.7-2.55,3.46-4,5-2.21,2.38-2.27,2.32-5,.51-3.7-2.47-7.33-5.05-11.55-6.6-.63-.22-1.15-.71-1.76-1-4.41-1.92-4.57-6.17-5.47-10-.06-.28.31-.66.59-1.21m2.82,2.51a5.61,5.61,0,0,0,3.46,4.93c.15-.63.31-1.4,0-1.75-1-1.07-2.14-2-3.45-3.18"/><path d="M11.86,11.76C18.71,4.25,31.13,3.3,39.77,9.64c9.3,6.83,10.45,18.51,7.07,25.48-1.15-.15-.85-.83-.61-1.56a20.24,20.24,0,0,0-14.9-26.4A19.7,19.7,0,0,0,13.4,11.91c-.59.51-1,.91-1.54-.15"/><path d="M37.79,45.53c-6.56,4.36-18,4.61-25.93-3.19S4.14,23.14,8.15,16.83c1,.36.71,1,.39,1.69a20.29,20.29,0,0,0,12.89,28A19.64,19.64,0,0,0,36,45.21c.74-.37,1.31-.47,1.8.32"/><path d="M21.91,26.43c1.31,1.19,2.47,2.11,3.45,3.18.32.35.16,1.12,0,1.75a5.61,5.61,0,0,1-3.46-4.93" style="fill:#fff"/></svg>