<svg xmlns="http://www.w3.org/2000/svg" viewBox="0 0 304.16 27.86"><path d="M304.16.59h-8V2l3,.55v16c0,1,0,2.21.08,3.59h-.08a40.29,40.29,0,0,0-1.66-3.83L288.91.59H283V2l3,.55V25.29l-3,.56v1.42h8V25.85l-3-.56V7.11c0-.87,0-1.73,0-2.69H288A20.14,20.14,0,0,0,289.06,7l9.84,20.24h2.26V2.57l3-.55ZM279.82,14.42H273v1.43l4.19.55v8.78a13,13,0,0,1-4.11.71c-4.94,0-6.64-3.2-6.64-12.41,0-8.54,1.7-11.5,6.64-11.5a8.59,8.59,0,0,1,3.91.87l.83,5.61,1.5-.08L279.07,0h-1.19l-.51.71A15.29,15.29,0,0,0,272.78,0c-6.75,0-9.09,3.52-9.09,13.59,0,10.6,2.38,14.27,9.14,14.27a12.41,12.41,0,0,0,7-2.17ZM257.52,2.57l3-.55V.59h-8.62V2l3,.55V25.29l-3,.56v1.42h8.62V25.85l-3-.56ZM242.23,12.89c-3.71-1.47-5.85-2.34-5.85-6.17C236.38,3.4,238,2,241.28,2a9.91,9.91,0,0,1,4.15.87l.83,5.61,1.51-.08L247.48,0H246.3l-.55.71A16,16,0,0,0,241,0c-5,0-7.36,2.17-7.36,6.84,0,5.45,3.25,7,6.85,8.38S246,17.55,246,21s-1.82,4.91-5.46,4.91a12.39,12.39,0,0,1-4.86-1l-1.07-5.49-1.5.15.59,8.3h1.19l.55-.67a18.54,18.54,0,0,0,5.06.67c5.62,0,8.26-2.33,8.26-7.23,0-4.51-2.21-6-6.52-7.74m-12.29,6.63-1.46-.19-1.34,6H218.6V16.4h8v-2h-8V2.57h7.82l1.34,6,1.47-.2L228.64.59H213V2l3,.55V25.29l-3,.56v1.42h16.36Zm-29.29,5.89c-1.3,0-2.56-.08-3.87-.12V2.57c1.31,0,2.57-.12,3.87-.12,5.14,0,7.2,3.08,7.2,10.63,0,8.78-2.06,12.33-7.2,12.33m0-24.94c-1.66,0-3.32.12-5,.12h-4.5V2l3,.55V25.29l-3,.56v1.42h4.5c1.66,0,3.32.12,5,.12,7.12,0,10-4.11,10-14.31,0-9-2.85-12.61-10-12.61" style="fill:#494948"/><path d="M178.92,8.38c0,4.31-1.66,6-5.77,6h-2.93V2.53c1,0,2-.08,2.81-.08,4.23,0,5.89,1.62,5.89,5.93m-8.7,8h2.93c.43,0,.87,0,1.26,0l6.09,10.91h3.16l-4.39-7.79A14.49,14.49,0,0,0,176.74,16c3.48-.86,4.94-3.23,4.94-7.62,0-5.7-2.45-7.95-8.53-7.95-1.43,0-2.89.12-4.32.12h-4.22V2l3,.55V25.3l-3,.55v1.42h8.62V25.85l-3-.55Zm-8.77,3.12L160,19.33l-1.35,6h-8.53V16.4h8v-2h-8V2.57h7.82l1.34,6,1.47-.2-.6-7.75H144.49V2l3,.55V25.3l-3,.55v1.42h16.36Zm-20.12-5.1h-6.8v1.43l4.2.55v8.78a13,13,0,0,1-4.12.71c-4.94,0-6.64-3.2-6.64-12.41C128,4.94,129.67,2,134.61,2a8.56,8.56,0,0,1,3.91.88l.83,5.61,1.51-.08L140.58,0h-1.19l-.51.71A15.17,15.17,0,0,0,134.3,0c-6.77,0-9.09,3.52-9.09,13.59,0,10.6,2.37,14.27,9.12,14.27a12.39,12.39,0,0,0,7-2.17ZM119,2.57,122,2V.59h-8.61V2l3,.55V25.3l-3,.55v1.42H122V25.85l-3-.55Zm-8.77,17-1.46-.19-1.35,6H98.92V16.4h8v-2h-8V2.57h7.83l1.34,6,1.46-.2L109,.59H93.31V2l3,.55V25.3l-3,.55v1.42h16.36ZM91.53,2V.59H84.06V2L87,2.49,83.12,21c-.28,1.38-.44,2.33-.52,3.12h-.08A26.94,26.94,0,0,0,81.73,21L76.87,4.51H75.56L70.63,21.06a27,27,0,0,0-.79,3.09h-.09A25.42,25.42,0,0,0,69.2,21L65.41,2.49,68.33,2V.59H60V2l2.69.55,5.06,24.7h3.08L75,12.84c.36-1.22.55-2,.72-2.72h.07c.16.75.32,1.5.68,2.72L80.7,27.27h3.09l5-24.7Zm-36.36.55,3-.55V.59H49.56V2l3,.55V14.42H42.92V2.57l3-.55V.59H37.31V2l3,.55V25.3l-3,.55v1.42h8.61V25.85l-3-.55V16.4h9.64v8.9l-3,.55v1.42h8.62V25.85l-3-.55ZM33.83,24.31a12.4,12.4,0,0,1-6,1.58c-4.43,0-6.21-3.17-6.21-12.22C21.58,4.9,23.24,2,27.82,2a8.64,8.64,0,0,1,3.92.88l.83,5.61,1.5-.08L33.79,0H32.61L32.1.71A15.57,15.57,0,0,0,27.35,0C21.14,0,18.8,3.52,18.8,13.71s2.39,14.15,8.63,14.15a12.27,12.27,0,0,0,7.11-2.17ZM9.13,12.88c-3.72-1.46-5.85-2.33-5.85-6.16C3.28,3.4,4.86,2,8.18,2a10,10,0,0,1,4.15.88l.83,5.61,1.5-.08L14.38,0H13.2l-.55.71A16,16,0,0,0,7.86,0C2.89,0,.51,2.17.51,6.84c0,5.45,3.24,7,6.84,8.38s5.53,2.33,5.53,5.77-1.81,4.9-5.45,4.9a12.39,12.39,0,0,1-4.86-1L1.5,19.41,0,19.57l.59,8.29H1.78l.55-.67a18.43,18.43,0,0,0,5.06.67c5.61,0,8.26-2.33,8.26-7.23,0-4.51-2.21-6-6.52-7.75" style="fill:#e5201d"/></svg>