<svg xmlns="http://www.w3.org/2000/svg" viewBox="0 0 27.76 27.76"><path d="M13.48,27.75h0a6.86,6.86,0,0,1-6.69-6.92v-.25H6.51A6.85,6.85,0,0,1,6.82,6.88h.26V6.62a6.85,6.85,0,0,1,13.69.3v.26h.29a6.85,6.85,0,0,1-.29,13.69h-.3v.27a6.87,6.87,0,0,1-7,6.6M14,2.42A4.44,4.44,0,0,0,9.5,6.7L9.41,9.29H6.82a4.44,4.44,0,0,0-.19,8.87l2.59.13,0,2.57a4.45,4.45,0,0,0,4.34,4.48l0,1.21,0-1.2a4.47,4.47,0,0,0,4.53-4.28l.09-2.65,2.68.06A4.44,4.44,0,0,0,21,9.6l-2.67-.06,0-2.64A4.46,4.46,0,0,0,14,2.42" style="fill:#ffffff"/></svg>
